<?xml version="1.0" encoding="UTF-8"?>
<svg width="453px" height="512px" viewBox="0 0 453 512" version="1.1" xmlns="http://www.w3.org/2000/svg" xmlns:xlink="http://www.w3.org/1999/xlink">
    <title>hacker</title>
    <g id="Spy-logo" stroke="none" stroke-width="1" fill="none" fill-rule="evenodd">
        <g id="hacker" fill-rule="nonzero">
            <path d="M358.640625,198.179688 C360.941406,191.429688 362.867188,184.546875 364.40625,177.578125 C364.535156,176.988281 363.371094,174.984375 361.496094,172.246094 C350.066406,155.550781 333.800781,142.75 314.980469,135.316406 L263.871094,115.128906 C239.707031,105.585938 212.816406,105.605469 188.667969,115.183594 L137.648438,135.414062 C118.847656,142.871094 102.609375,155.691406 91.203125,172.390625 C89.328125,175.136719 88.160156,177.144531 88.292969,177.738281 C90.035156,185.601562 92.28125,193.351562 94.992188,200.9375 C121.265625,274.308594 184.101562,309.90625 184.101562,309.90625 L268.746094,309.859375 C268.746094,309.859375 331.460938,274.234375 357.683594,200.929688 C358.007812,200.015625 358.328125,199.097656 358.640625,198.179688 Z" id="Path" fill="#44475A"></path>
            <path d="M150.257812,138.242188 L140.582031,138.25 C137.078125,138.25 133.851562,139.4375 131.277344,141.429688 C126.808594,144.886719 124.851562,150.699219 125.863281,156.257812 L129.675781,177.179688 C132.636719,192.683594 150.308594,185.585938 150.308594,185.585938 L150.257812,138.242188 Z" id="Path" fill="#EFD0AF"></path>
            <path d="M303.210938,138.15625 L312.886719,138.148438 C316.390625,138.148438 319.621094,139.328125 322.195312,141.316406 C326.667969,144.769531 328.632812,150.578125 327.625,156.140625 L323.835938,177.0625 C320.898438,192.574219 303.214844,185.496094 303.214844,185.496094 L303.210938,138.15625 Z" id="Path" fill="#FAE0C1"></path>
            <path d="M257.109375,349.839844 L290.171875,318.746094 C295.898438,313.363281 293.074219,303.761719 285.351562,302.332031 C276.367188,300.53125 269.898438,290.113281 269.890625,280.949219 L269.867188,240.113281 L226.339844,240.140625 L182.808594,240.164062 L182.832031,281 C182.835938,290.164062 176.378906,300.589844 167.398438,302.398438 C159.671875,303.839844 156.863281,313.445312 162.589844,318.820312 L195.691406,349.875 C212.964844,366.078125 239.855469,366.0625 257.109375,349.839844 Z" id="Path" fill="#FAE0C1"></path>
            <path d="M285.351562,302.332031 C276.363281,300.53125 269.894531,290.113281 269.890625,280.949219 L269.867188,240.117188 L235.476562,240.136719 L235.496094,280.949219 C235.503906,290.113281 241.972656,300.53125 250.957031,302.332031 C258.683594,303.761719 261.503906,313.363281 255.78125,318.746094 L222.714844,349.839844 C218.65625,353.65625 214.0625,356.578125 209.183594,358.597656 C225.046875,365.179688 243.902344,362.257812 257.105469,349.839844 L290.171875,318.746094 C295.898438,313.367188 293.074219,303.761719 285.351562,302.332031 Z" id="Path" fill="#EFD0AF"></path>
            <path d="M280.316406,51.1875 C267.726562,39.5625 250.035156,29.417969 226.671875,29.152344 C203.308594,29.445312 185.628906,39.609375 173.054688,51.25 C157.015625,66.097656 148.332031,88.140625 148.343738,110.882812 L148.347656,113.628906 L148.367188,113.628906 L148.414062,192.898438 C148.867188,215.003906 164.132812,230.300781 177.398438,243.4375 C189.605469,255.523438 203.445312,269.800781 226.8125,270.066406 C250.171875,269.773438 264,255.484375 276.191406,243.378906 C289.441406,230.226562 304.691406,214.914062 305.121094,192.808594 L305.074219,113.539062 L305.097656,113.539062 L305.09375,110.789062 C305.082031,88.050781 296.375,66.019531 280.316406,51.1875 L280.316406,51.1875 Z" id="Path" fill="#FAE0C1"></path>
            <path d="M305.074219,113.539062 L305.09375,113.539062 L305.09375,110.792969 C305.078125,88.050781 296.371094,66.019531 280.316406,51.1875 C277.21875,48.328125 273.808594,45.554688 270.085938,43 L270.085938,113.539062 L270.066406,60.234375 L270.109375,192.808594 C269.679688,214.914062 254.429688,230.230469 241.179688,243.382812 C232.382812,252.113281 222.738281,261.980469 209.277344,266.914062 C214.492188,268.824219 220.277344,269.992188 226.808594,270.070312 C250.171875,269.777344 263.996094,255.484375 276.1875,243.382812 C289.4375,230.230469 304.6875,214.914062 305.117188,192.808594 L305.074219,113.539062 Z" id="Path" fill="#EFD0AF"></path>
            <path d="M369.703125,292.671875 L301.230469,279.636719 C286.671875,276.863281 271.5,279.09375 258.648438,286.464844 C249.425781,291.75 236.925781,295.3125 230.691406,296.886719 C228.152344,297.527344 225.503906,297.515625 222.96875,296.855469 C216.773438,295.242188 204.359375,291.617188 195.023438,286.347656 C182.0625,279.035156 167.007812,276.347656 152.410156,279.238281 C125.03125,284.660156 89.269531,291.738281 89.269531,291.738281 C79.875,293.597656 76.394531,295.863281 74.078125,299.148438 L12.605469,404.421875 C6.492188,414.890625 5.8125,427.667969 10.777344,438.730469 L35.589844,494.003906 C37.78125,500.289062 43.714844,504.503906 50.371094,504.500003 L403.417969,504.296875 C410.125,504.292969 416.082031,500.015625 418.230469,493.660156 L442.386719,438.222656 C447.148438,427.296875 446.4375,414.761719 440.476562,404.441406 L379.609375,299.085938 C377.269531,295.734375 373.714844,293.433594 369.703125,292.671875 L369.703125,292.671875 Z" id="Path" fill="#6272A4"></path>
            <path d="M418.230469,493.660156 L442.386719,438.222656 C447.148438,427.296875 446.4375,414.761719 440.476562,404.441406 L379.609375,299.085938 C377.269531,295.734375 373.714844,293.433594 369.703125,292.671875 L301.230469,279.636719 C286.671875,276.863281 271.5,279.089844 258.648438,286.460938 C252.871094,289.773438 245.804688,292.410156 239.800781,294.304688 C239.796875,294.304688 239.796875,294.304688 239.796875,294.304688 C241.605469,294.496094 325.875,313.605469 325.875,313.605469 C329.890625,314.371094 333.441406,316.671875 335.78125,320.023438 L396.648438,415.375 C402.613281,425.695312 403.320312,438.230469 398.558594,449.15625 L374.527344,504.3125 L403.417969,504.296875 C410.125,504.292969 416.082031,500.015625 418.230469,493.660156 L418.230469,493.660156 Z" id="Path" fill="#44475A"></path>
            <path d="M390.496094,494.683594 L63.378906,494.867188 L44.453125,320.550781 C43.839844,314.90625 48.257812,309.984375 53.929688,309.980469 L399.734375,309.781248 C405.410156,309.777344 409.832031,314.699219 409.226562,320.34375 L390.496094,494.683594 Z" id="Path" fill="#F8F8F2"></path>
            <path d="M399.734375,309.781248 L375.019531,309.796875 L355.152344,494.683594 L390.496094,494.683594 L409.226562,320.34375 C409.832031,314.699219 405.410156,309.777344 399.734375,309.781248 Z" id="Path" fill="#D6D6D6"></path>
            <path d="M405.183594,504.500003 L48.707031,504.500003 C43.484375,504.503906 39.246094,500.273438 39.242188,495.050781 L39.238281,488.214844 C39.238281,482.988281 43.46875,478.753906 48.691406,478.75 L405.167969,478.546875 C410.390625,478.546875 414.625,482.777344 414.628906,488 L414.632812,494.835938 C414.632812,500.058594 410.402344,504.496094 405.183594,504.500003 Z" id="Path" fill="#D6D6D6"></path>
            <path d="M414.628906,488 C414.625,482.777344 410.390625,478.546875 405.164062,478.550778 L379.488281,478.5625 L379.496094,504.3125 L405.179688,504.5 C410.402344,504.496094 414.632812,500.058594 414.632812,494.835938 L414.628906,488 Z" id="Path" fill="#BEBEBE"></path>
            <path d="M250.039062,365.066406 C250.039062,378.117188 239.460938,388.695312 226.410156,388.695312 C213.363281,388.695312 202.78125,378.117188 202.78125,365.066406 C202.78125,352.019531 213.363281,341.4375 226.410156,341.4375 C239.460938,341.4375 250.039062,352.019531 250.039062,365.066406 L250.039062,365.066406 Z" id="Path" fill="#B53B3B"></path>
            <path d="M238.582031,443.5 C231.117188,447.96875 221.800781,447.972656 214.332031,443.515625 C202.113281,436.222656 194.628906,423.046875 194.621094,408.820312 L194.60937,386.535156 C194.601562,374.6875 204.199219,365.082031 216.042969,365.074219 L236.777344,365.062495 C248.625,365.054688 258.230469,374.652344 258.238281,386.496094 L258.250006,408.785156 C258.257812,423.011719 250.789062,436.195312 238.582031,443.5 L238.582031,443.5 Z" id="Path" fill="#FF5555"></path>
            <path d="M364.085938,178.992188 C364.195312,178.523438 364.300781,178.050781 364.40625,177.578125 L364.40625,177.574219 C364.429688,176.675781 364.4375,175.777344 364.4375,174.875 C364.402344,111.898438 289.242188,7.925781 226.203125,7.5 C163.167969,7.996094 88.125,112.054688 88.1640468,175.035156 C88.1640468,175.824219 88.171875,176.609375 88.191406,177.394531 C88.238281,177.542969 88.273438,177.660156 88.289062,177.738281 C88.382812,178.148438 88.476562,178.558594 88.566406,178.96875 C94.214844,158.40625 166.332031,142.179688 226.28125,142.066406 C286.410156,142.113281 358.796875,158.351562 364.085938,178.992188 Z" id="Path" fill="#6272A4"></path>
            <path d="M226.203125,7.5 C220.207031,7.546875 214.105469,8.53125 207.964844,10.328125 C260.117188,25.582031 314.738281,99.402344 325.84375,155.589844 C346.890625,161.925781 361.792969,170.046875 364.085938,178.992188 C364.195312,178.523438 364.300781,178.054688 364.40625,177.578125 C364.40625,177.578125 364.40625,177.578125 364.40625,177.574219 C364.429688,176.679688 364.4375,175.777344 364.4375,174.878906 C364.402344,111.898438 289.242188,7.925781 226.203125,7.5 Z" id="Path" fill="#44475A"></path>
            <path d="M244.972656,387.753906 C252.214844,387.75 256.457031,380.730469 254.761719,374.808594 C250.933594,368.941406 244.320312,365.0625 236.792969,365.0625 L216.027344,365.074219 C208.710938,365.082031 202.257812,368.757812 198.394531,374.359375 C196.320312,380.402344 200.464844,387.777344 207.976562,387.77344 L244.972656,387.753906 Z" id="Path" fill="#CF3735"></path>
            <path d="M288.402347,398.167969 C288.398438,394.027344 285.042969,390.671875 280.898438,390.671875 L265.746094,390.683594 C265.746094,390.683594 265.738281,385.820312 265.726562,385.484375 C274.90625,381.558594 281.429688,373.023438 282.8125,363.136719 L284.835938,351.960938 C285.574219,347.886719 282.871094,343.984375 278.792969,343.242188 C274.722656,342.507812 270.816406,345.210938 270.078125,349.285156 C270.078125,349.285156 267.984375,360.855469 267.964844,360.972656 C267.40625,365.1875 264.886719,368.890625 261.246094,370.984375 C260.179688,369.308594 258.933594,367.734375 257.519531,366.292969 C257.519531,366.292969 257.546875,365.464844 257.542969,365.050781 C257.539062,356.734375 254.296875,348.921875 248.414062,343.042969 C242.535156,337.171875 234.726562,333.941406 226.398438,333.941406 C218.082031,333.945312 210.269531,337.1875 204.394531,343.070312 C198.515625,348.953125 195.28125,356.769531 195.289062,365.085938 C195.289062,365.503906 195.316406,366.34375 195.316406,366.34375 C193.921875,367.78125 192.683594,369.359375 191.621094,371.039062 C187.964844,368.957031 185.429688,365.246094 184.863281,361.023438 C184.847656,360.90625 182.738281,349.335938 182.738281,349.335938 C181.996094,345.261719 178.085938,342.5625 174.015625,343.304688 C169.941406,344.046875 167.238281,347.953125 167.984375,352.03125 L170.023438,363.203125 C171.414062,373.089844 177.949219,381.617188 187.132812,385.527344 C187.121094,385.863281 187.117188,390.726562 187.117188,390.726562 L171.964844,390.738281 C167.820312,390.738281 164.464844,394.101562 164.468747,398.242188 C164.472656,402.382812 167.828125,405.738281 171.972656,405.738281 L187.125,405.726562 C187.125,405.726562 187.125,409.089844 187.128906,409.222656 C177.957031,413.152344 171.441406,421.679688 170.058594,431.5625 C170.058594,431.5625 168.035156,442.734375 168.035156,442.738281 C167.207031,447.289062 170.824219,451.601562 175.453125,451.574219 C179.042969,451.558594 182.136719,448.921875 182.792969,445.414062 L184.847656,434.078125 C184.871094,433.960938 184.886719,433.84375 184.902344,433.726562 C185.371094,430.203125 187.210938,427.035156 189.929688,424.867188 C193.632812,435.214844 200.839844,444.195312 210.492188,449.957031 C215.414062,452.894531 220.933594,454.363281 226.449219,454.363281 C231.980469,454.363281 237.507812,452.886719 242.4375,449.9375 C252.082031,444.164062 259.277344,435.175781 262.972656,424.824219 C265.691406,426.988281 267.535156,430.15625 268.007812,433.675781 C268.023438,433.792969 268.042969,433.910156 268.0625,434.027344 C268.0625,434.027344 270.128906,445.351562 270.132812,445.363281 C270.8125,449.101562 274.40625,451.769531 278.171875,451.472656 C282.511719,451.132812 285.664062,446.933594 284.886719,442.671875 L282.847656,431.496094 C281.457031,421.617188 274.929688,413.097656 265.753906,409.175781 C265.753906,409.046875 265.753906,405.683594 265.753906,405.683594 L280.90625,405.671875 C285.046875,405.671875 288.40625,402.308594 288.402347,398.167969 L288.402347,398.167969 Z M245.875,377.535156 C245.574219,378.332031 244.804688,379.003906 243.914062,379.003906 C243.914062,379.003906 208.949219,379.027344 208.949219,379.027344 C207.972656,379.027344 207.320312,378.558594 207.011719,377.632812 C206.703125,376.691406 206.949219,375.914062 207.746094,375.320312 C210.15625,373.523438 213.03125,372.574219 216.054688,372.574219 C216.054688,372.574219 236.789062,372.5625 236.792969,372.5625 C239.914062,372.5625 242.859375,373.566406 245.316406,375.464844 C245.324219,375.46875 245.332031,375.476562 245.339844,375.480469 C245.351562,375.488281 245.359375,375.496094 245.371094,375.507812 C246.046875,376.039062 246.140625,376.835938 245.875,377.535156 Z M226.40625,348.9375 L226.417969,348.9375 C230.722656,348.9375 234.769531,350.613281 237.816406,353.65625 C239.058594,354.898438 240.074219,356.3125 240.84375,357.839844 C239.515625,357.65625 238.160156,357.5625 236.792969,357.5625 C236.789062,357.5625 236.785156,357.558594 236.78125,357.5625 L216.046875,357.574219 C214.671875,357.574219 213.316406,357.671875 211.980469,357.855469 C212.746094,356.328125 213.761719,354.914062 215.003906,353.671875 C218.050781,350.621094 222.097656,348.941406 226.40625,348.9375 Z M202.125,408.816406 L202.117188,392.644531 C204.210938,393.539062 206.519531,394.023438 208.949219,394.023438 L208.957031,394.023438 L218.921875,394.019531 L218.957031,437.507812 C218.695312,437.371094 219.210938,437.65625 218.957031,437.507812 C207.539062,430.875 202.132812,420.339844 202.125,408.816406 Z M233.957031,437.503906 L233.921875,394.011719 L243.921875,394.003906 C246.34375,394.003906 248.652344,393.515625 250.746094,392.613281 L250.757814,408.785156 C250.761719,420.3125 244.6875,431.480469 233.957031,437.503906 Z" id="Shape" fill="#000000"></path>
            <path d="M446.976562,400.6875 L431.054688,373.128906 C428.980469,369.539062 424.394531,368.3125 420.808594,370.386719 C417.222656,372.457031 415.992188,377.046875 418.066406,380.632812 L433.988281,408.191406 C438.738281,416.414062 439.308594,426.519531 435.515625,435.226562 L417.5625,476.425781 C417.433594,476.285156 413.996094,471.238281 405.167969,471.050781 L400.582031,471.050781 L416.6875,321.144531 C417.203125,316.339844 415.648438,311.523438 412.417969,307.929688 C409.191406,304.339844 404.570312,302.28125 399.734375,302.28125 L239.054688,302.375 C246.046875,300.3125 255.066406,297.164062 262.382812,292.96875 C273.4375,286.628906 286.734375,284.507812 299.828125,287.003906 L347.847656,296.144531 C351.914062,296.917969 355.84375,294.25 356.617188,290.179688 C357.394531,286.109375 354.722656,282.183594 350.652344,281.410156 L320.84375,275.734375 C340.691406,253.910156 355.4375,229.644531 364.753906,203.4375 C367.902344,194.578125 371.945312,184.402344 371.941406,174.871094 C371.921875,142.84375 353.878906,100.011719 324.847656,63.09375 C293.480469,23.207031 257.546875,0.210938 226.261719,5.68434189e-14 L226.152344,5.68434189e-14 C194.867188,0.246094 158.957031,23.285156 127.636719,63.207031 C98.648438,100.15625 80.652344,143.007812 80.667969,175.042969 C80.679688,184.433594 84.804688,194.675781 87.917969,203.441406 C97.226562,229.621094 111.953125,253.867188 131.777344,275.679688 L103.515625,281.273438 C99.453125,282.078125 96.8125,286.023438 97.617188,290.085938 C98.421875,294.148438 102.371094,296.78125 106.429688,295.988281 L153.871094,286.59375 C166.445312,284.105469 179.75,286.335938 191.34375,292.875 C198.824219,297.097656 207.945312,300.296875 214.917969,302.386719 L53.933594,302.476562 C49.101562,302.480469 44.480469,304.542969 41.253906,308.140625 C38.03125,311.738281 36.480469,316.554688 37,321.359375 L53.277344,471.246094 L48.691406,471.25 C40.75,471.25 36.304688,476.636719 36.113281,476.847656 L17.625,435.660156 C13.660156,426.828125 14.207031,416.5625 19.089844,408.203125 L35.804688,379.574219 C37.894531,376 36.6875,371.40625 33.109375,369.316406 C29.535156,367.226562 24.941406,368.433594 22.851562,372.011719 L6.136719,400.636719 C-1.183594,413.171875 -2.003906,428.558594 3.941406,441.800781 L28.632812,496.804688 C30.601562,502.1875 34.433594,506.59375 39.488281,509.28125 C42.210938,511.050781 45.382812,512 48.714844,512 L405.191406,512 C408.699219,512 412.046875,510.734375 414.863281,508.765625 C419.703125,506.011719 423.363281,501.648438 425.226562,496.394531 L449.269531,441.21875 C454.953125,428.167969 454.097656,413.015625 446.976562,400.6875 L446.976562,400.6875 Z M303.34375,272.402344 C303.34375,272.402344 292.996094,269.5 277.394531,271.957031 L277.378906,252.761719 C278.484375,251.679688 281.476562,248.703125 281.476562,248.703125 C294.835938,235.441406 311.394531,219.007812 312.566406,194.589844 C315.878906,194.488281 319.4375,193.742188 322.679688,191.738281 C325.785156,189.816406 329.789062,185.957031 331.222656,178.402344 L333.464844,166.007812 C347.945312,171.335938 354.359375,176.402344 356.269531,179.585938 C355.484375,182.871094 353.6875,189.78125 350.617188,198.417969 C341.007812,225.453125 325.109375,250.328125 303.34375,272.402344 L303.34375,272.402344 Z M182.679688,238.105469 C170.335938,225.882812 156.347656,212.027344 155.917969,192.816406 L155.894531,156.371094 C178.253906,152.089844 203.472656,149.609375 226.28125,149.566406 C249.425781,149.582031 275.015625,152.101562 297.601562,156.464844 L297.621094,192.734375 C297.214844,211.945312 283.242188,225.816406 270.910156,238.058594 C270.910156,238.058594 248.164062,262.566406 226.808594,262.566406 C205.832031,262.566406 182.679688,238.105469 182.679688,238.105469 Z M140.910156,179.679688 C138.746094,179.679688 137.375,177.480469 137.058594,175.832031 L134.410156,161.300781 C135.859375,160.90625 140.230469,159.785156 140.898438,159.625 L140.910156,179.679688 Z M312.617188,179.578125 L312.605469,159.75 C313.042969,159.859375 317.40625,160.980469 319.050781,161.433594 C319.050781,161.433594 316.476562,175.636719 316.472656,175.667969 C316.074219,177.882812 314.976562,179.386719 312.617188,179.578125 Z M226.214844,15 C279.28125,15.410156 345.34375,99.296875 355.582031,159.726562 C346.589844,154.40625 333.90625,149.660156 317.59375,145.535156 C290.53125,138.691406 256.398438,134.589844 226.273438,134.566406 C196.269531,134.625 162.234375,138.742188 135.226562,145.578125 C118.804688,149.734375 106.042969,154.515625 97.015625,159.871094 C107.199219,99.414062 173.15625,15.472656 226.214844,15 Z M149.164062,272.234375 C127.480469,250.203125 111.640625,225.386719 102.054688,198.417969 C98.996094,189.820312 97.203125,182.9375 96.414062,179.632812 C98.441406,176.382812 105.09375,171.21875 119.992188,165.820312 L122.316406,178.582031 C123.742188,186.070312 127.75,189.933594 130.863281,191.851562 C134.105469,193.851562 137.664062,194.59375 140.976562,194.6875 C142.179688,219.105469 158.75,235.519531 172.125,248.765625 C172.125,248.765625 174.53125,251.148438 175.320312,251.925781 L175.332031,271.535156 C162.1875,269.0625 149.164062,272.234375 149.164062,272.234375 L149.164062,272.234375 Z M190.332031,275.769531 L190.328125,265.058594 C199.855469,271.992188 211.484375,277.394531 226.730469,277.566406 L226.816406,277.566406 L226.90625,277.566406 C241.667969,277.382812 253.039062,272.296875 262.386719,265.671875 L262.390625,276.273438 C259.832031,277.34375 257.335938,278.570312 254.921875,279.957031 C246.246094,284.929688 233.808594,288.367188 228.859375,289.613281 C227.554688,289.941406 226.167969,289.9375 224.859375,289.597656 C219.941406,288.316406 207.546875,284.800781 198.714844,279.816406 C195.992188,278.277344 193.191406,276.929688 190.332031,275.769531 L190.332031,275.769531 Z M51.910156,319.738281 C51.832031,318.992188 52.144531,318.46875 52.421875,318.15625 C52.699219,317.847656 53.1875,317.480469 53.941406,317.480469 L399.746094,317.28125 C400.496094,317.28125 400.984375,317.648438 401.261719,317.957031 C401.539062,318.265625 401.855469,318.792969 401.773438,319.539062 L385.492188,471.058594 L68.363281,471.242188 L51.910156,319.738281 Z M405.183594,496.796875 C405.183594,496.796875 48.707031,497 48.703125,497 C47.632812,497 46.75,496.113281 46.75,495.046875 C46.75,495.046875 46.746094,488.214844 46.746094,488.210938 C46.746094,487.175781 47.621094,486.253906 48.699219,486.253906 C48.699219,486.253906 405.175781,486.050781 405.179688,486.050781 C406.25,486.050781 407.132812,486.9375 407.132812,488.003906 L407.136719,494.839844 C407.136719,495.917969 406.261719,496.796875 405.183594,496.796875 L405.183594,496.796875 Z" id="Shape" fill="#000000"></path>
        </g>
    </g>
</svg>