<?xml version="1.0" encoding="UTF-8"?>
<svg width="758px" height="572px" viewBox="0 0 758 572" version="1.1" xmlns="http://www.w3.org/2000/svg" xmlns:xlink="http://www.w3.org/1999/xlink">
    <!-- Generator: Sketch 63.1 (92452) - https://sketch.com -->
    <title>Monitor</title>
    <desc>Created with Sketch.</desc>
    <g id="Page-2-Copy" stroke="none" stroke-width="1" fill="none" fill-rule="evenodd">
        <g id="Monitor" transform="translate(6.000000, 6.000000)">
            <line x1="212" y1="307.5" x2="358" y2="307.5" id="Line-2" stroke="#6272A4" stroke-width="10" stroke-linecap="round"></line>
            <rect id="Rectangle" stroke="#6272A4" stroke-width="12" stroke-linejoin="round" x="0" y="0" width="746" height="560"></rect>
            <rect id="Rectangle" stroke="#6272A4" stroke-width="12" stroke-linejoin="round" x="34" y="36" width="680" height="489"></rect>
            <polyline id="Path" stroke="#6272A4" stroke-width="10" stroke-linecap="round" stroke-linejoin="round" transform="translate(151.500000, 212.000000) rotate(90.000000) translate(-151.500000, -212.000000) " points="101 231 151.5 193 202 231"></polyline>
            <g id="Idea" transform="translate(199.000000, 84.000000)" fill="#FF79C6">
                <path d="M91.5,21 C95.0898509,21 98,18.1793939 98,14.7 L98,6.3 C98,2.82060608 95.0898509,0 91.5,0 C87.9101491,0 85,2.82060608 85,6.3 L85,14.7 C85,18.1793939 87.9101491,21 91.5,21 Z" id="Shape"></path>
                <path d="M178.7,75 L170.3,75 C166.820606,75 164,77.9101491 164,81.5 C164,85.0898509 166.820606,88 170.3,88 L178.7,88 C182.179394,88 185,85.0898509 185,81.5 C185,77.9101491 182.179394,75 178.7,75 Z" id="Shape"></path>
                <path d="M21,81.5 C21,77.9101491 18.1793939,75 14.7,75 L6.3,75 C2.82060608,75 0,77.9101491 0,81.5 C0,85.0898509 2.82060608,88 6.3,88 L14.7,88 C18.1793939,88 21,85.0898509 21,81.5 Z" id="Shape"></path>
                <path d="M149.157301,40 C150.791158,39.9985588 152.357571,39.347052 153.512164,38.1887144 L159.346036,32.3843672 C161.608584,29.9514009 161.541823,26.160051 159.195028,23.8085735 C156.848233,21.457096 153.064432,21.390202 150.636311,23.6572636 L144.802438,29.4616108 C143.042249,31.2275058 142.516067,33.8814942 143.468971,36.1874373 C144.421874,38.4933804 146.66647,39.9978048 149.157301,40 Z" id="Shape"></path>
                <path d="M37.3322801,29.5260092 L31.4498859,23.6715669 C29.0015692,21.3849391 25.1862983,21.4524104 22.8199844,23.8241826 C20.4536706,26.1959549 20.3863546,30.0200265 22.6677199,32.4739908 L28.5501141,38.3284331 C30.9984308,40.6150609 34.8137017,40.5475896 37.1800156,38.1758174 C39.5463294,35.8040451 39.6136454,31.9799735 37.3322801,29.5260092 L37.3322801,29.5260092 Z" id="Shape"></path>
                <path d="M162.449886,128.671567 C160.001569,126.384939 156.186298,126.45241 153.819984,128.824183 C151.453671,131.195955 151.386355,135.020027 153.66772,137.473991 L159.550114,143.328433 C161.998431,145.615061 165.813702,145.54759 168.180016,143.175817 C170.546329,140.804045 170.613645,136.979973 168.33228,134.526009 L162.449886,128.671567 Z" id="Shape"></path>
                <path d="M19.5501141,128.671567 L13.6677199,134.526009 C11.3863546,136.979973 11.4536706,140.804045 13.8199844,143.175817 C16.1862983,145.54759 20.0015692,145.615061 22.4498859,143.328433 L28.3322801,137.473991 C30.6136454,135.020027 30.5463294,131.195955 28.1800156,128.824183 C25.8137017,126.45241 21.9984308,126.384939 19.5501141,128.671567 Z" id="Shape"></path>
                <path d="M148.999943,92.9455122 C149.039413,64.5594081 128.609792,40.3366988 100.770681,35.7617109 C72.9315705,31.1867229 45.9058223,47.6107729 36.9696014,74.5348142 C28.0333804,101.458855 39.8261828,130.93032 64.8094792,144.109623 C63.5285459,146.105192 62.8443085,148.429087 62.8381903,150.804766 L62.8381903,163.203177 C62.8381903,176.898084 73.8703917,188 87.4793017,188 L95.6930054,188 C109.301915,188 120.334117,176.898084 120.334117,163.203177 L120.334117,150.804766 C120.327999,148.429087 119.643761,146.105192 118.362828,144.109623 C137.210573,134.088804 149.002157,114.396808 148.999943,92.9455122 Z M107.931424,150.804766 L107.931424,154.937569 L87.3971646,154.937569 C83.9949371,154.937569 81.2368868,157.713048 81.2368868,161.136775 C81.2368868,164.560502 83.9949371,167.335981 87.3971646,167.335981 L107.192191,167.335981 C105.456026,172.277693 100.819403,175.586858 95.6108684,175.601589 L87.3971646,175.601589 C80.5927096,175.601589 75.076609,170.050631 75.076609,163.203177 L75.076609,150.804766 L107.931424,150.804766 Z M91.5040165,138.406354 L91.5040165,138.406354 C66.5543482,138.406354 46.3286457,118.052842 46.3286457,92.9455122 C46.3286457,67.8381824 66.5543482,47.4846702 91.5040165,47.4846702 C116.453685,47.4846702 136.679387,67.8381824 136.679387,92.9455122 C136.679392,105.009641 131.914221,116.579052 123.433311,125.105802 C114.952401,133.632553 103.451315,138.417322 91.462948,138.406354 L91.5040165,138.406354 Z" id="Shape"></path>
                <path d="M93.15,59 C89.7534488,59 87,61.7534488 87,65.15 C87,68.5465512 89.7534488,71.3 93.15,71.3 C105.594662,71.3225652 115.677435,81.4053377 115.7,93.85 C115.7,97.2465512 118.453449,100 121.85,100 C125.246551,100 128,97.2465512 128,93.85 C127.977407,74.6122425 112.387758,59.0225928 93.15,59 L93.15,59 Z" id="Shape"></path>
            </g>
        </g>
    </g>
</svg>