<svg version="1" xmlns="http://www.w3.org/2000/svg" width="933.333" height="933.333" viewBox="0 0 700.000000 700.000000"><path d="M337.7 1.5c-5.9 2.2-11.2 7-13.7 12.2-2.1 4.4-2.3 6.2-2.3 23.8 0 22.2.4 24.9 4.3 30.3 8.5 11.7 25.9 13.5 36.6 3.8 7.5-6.8 8.2-9.5 8.3-31.3 0-10.3-.5-20.7-1-23-1.5-5.6-7.2-12.1-13-14.8-5.6-2.6-13.8-3-19.2-1zM93.5 83.8c-11 5.2-16.2 16.8-12.8 28.4 1.1 4 3.4 6.8 15.1 18.4 9.8 9.8 15.2 14.3 19 16.1 18 8.4 37.8-9.6 31.4-28.7-1.2-3.5-4.2-7.2-14.4-17.2-16.4-16.3-18.8-17.9-27.6-18.5-5.1-.3-7.6.1-10.7 1.5zM577.7 83.5c-4.4 1.5-4.6 1.7-20.5 17-6.2 6-12.3 12.8-13.5 15-6.3 12.3.3 28.1 13.5 32 12.1 3.6 16.3 1.7 33.7-15.1 15.4-14.9 18.1-19 18.1-27.6 0-15.7-16.2-26.8-31.3-21.3zM334.8 130.5c-.2.1-4.2.5-8.9.9s-9.5.8-10.7 1.1c-1.1.2-4.2.7-6.9 1.1-2.6.5-5 .8-5.3.9-19.4 4.1-42.5 12.4-58.9 21.2-8 4.2-22.6 13.2-26.1 16-.8.6-5 3.9-9.2 7.2-27.1 21.2-51.6 54.3-64.6 87.2-6.4 16.1-12.1 37.6-13.8 52.4-.4 3.3-.8 7.3-1 9-.5 4.3-.5 32.4 0 36 .2 1.6.7 5.9 1.1 9.5.4 3.6.9 7.4 1.1 8.5.2 1.1.7 3.3.9 5 1.6 8.7 7.1 27.2 11.1 37.4 10.6 26.7 25.4 49.6 45.4 70.5 14.3 14.9 25.6 23.8 44.5 35.2 6.1 3.7 11.1 6.7 11.2 6.8.1.1-.9 2.6-2.3 5.5s-2.7 6.1-2.9 7.2c-.2 1.2-.7 3-1.1 4.2-.9 2.8-.9 57.6 0 65.2 4.1 34.7 28.4 64.5 62.1 76.3 12.4 4.4 20.2 5.2 49 4.9 24.4-.3 27.8-.5 35.5-2.6 29.9-8 53.9-29.3 64.4-57.3 1.4-3.7 2.8-8 3.2-9.5 2.3-10.8 2.7-16.6 2.7-45.2 0-31.4-.6-36.7-5.4-44.9-1-1.8-1.9-3.5-1.9-3.7 0-.3 1.9-1.4 4.3-2.5 13.3-6.4 33-21.2 47.7-36 25.1-25 41.1-50.6 52.5-84 3.5-10 8-29 9-37.5.3-2.8.9-6.3 1.2-8 .3-1.6.7-10.2.8-19 .5-34.8-6.5-66.4-21.4-97-5.5-11.2-19.3-34-22-36.5-.3-.3-2.4-2.8-4.6-5.5-14.4-18.1-37.1-37.6-57.1-49.3-33.9-19.8-68.9-29.8-107.1-30.6-8.9-.2-16.3-.3-16.5-.1zm35.7 47.9c1.7.2 4.6.8 6.5 1.1 1.9.4 4.6.9 6 1.1 1.4.3 6.3 1.6 11 3 39.8 11.7 73.5 36.7 96 70.9 10.4 16 20 39.2 23.4 57 .9 4.4 1.9 9.3 2.2 11 .4 1.6.8 11.1.9 21 .4 26.2-3.2 45.1-13.1 68.5-15 35.7-44.5 67.2-78.4 83.9-4.7 2.3-9.3 4.7-10.3 5.2-5.8 3.1-26.1 9.3-37.7 11.3-36.4 6.5-72.4 1.6-105.5-14.4-59.9-28.9-97-88.6-96-154.3.2-12.7 1-20.1 3-29.7 2-9.3 2.1-9.8 3.5-15 2.3-8.7 14.7-37.3 16.9-39 .4-.3 1.7-2.2 2.9-4.4 10.7-18.4 34.8-41.7 56.9-55 18.3-11 43.9-19.8 64.7-22.2 2.8-.4 5.3-.8 5.5-1 .6-.5 37.9.4 41.6 1zM408.1 562c.4 2.1.3 13.3-.1 14-.3.5-19.5 1-42.5 1.2-46.8.3-44.8 0-52 7.5-8.3 8.6-7.7 24.1 1.3 32.1 6.7 5.9 5.3 5.7 49.5 6l40.8.3-.7 2.2c-3.8 12.3-20.1 25.3-34.7 27.7-3 .5-15.4.7-27.4.6-19.2-.3-22.4-.6-27.1-2.4-16-6.2-27.2-19.2-30.2-35.1-.5-3-1-16.4-1-30v-24.6h62c34.1 0 62 .2 62.1.5z"/><path d="M348.7 220.1c-14.8 2.3-23.5 18.2-17.3 31.5 4.4 9.2 10.7 13.1 22.9 13.9 13.5.9 19.4 2.1 29.7 6.1 25.5 10 45.3 32.7 51.5 58.9 1.2 5.4 1.4 6.4 2 15.3 1 13.5 5 20.3 14.2 24.4 15.4 6.8 32.7-4.8 32.5-21.8-.6-66.8-53.7-123.2-120.5-128-4.5-.3-8.6-.7-9.2-.8-.5-.1-3.2.1-5.8.5zM18.5 280C8 282.4.9 291.3.4 302.6c-.5 10 4.4 18.1 14 23.1 2.6 1.4 6.7 1.7 23.9 1.8 13.9.1 22-.3 24.3-1.1 6.2-2.1 11.1-6.3 13.9-11.9 5-9.8 3-21-5-28.8-5.9-5.8-9.9-6.6-31.3-6.5-10.3 0-20 .4-21.7.8zM637 280.6c-2.5.7-6.2 3-8.3 4.9-12.5 11.8-9.8 31.7 5.3 39.5 4.2 2.2 5.7 2.4 24.5 2.5 22.7.2 26.8-.5 33.2-5.9 13.5-11.7 9.5-34.3-7.3-40.6-4.5-1.7-7.8-1.9-24.1-1.9-12.9.1-20.2.5-23.3 1.5zM84 473.7c-5.9 2-10 5.2-22.1 17.2-12.1 12-13.9 14.2-15.2 18.8-2.8 9.4-.2 18.1 7.2 24.5 2.2 1.9 5.6 3.9 7.6 4.5 5 1.6 13.5.9 18.1-1.5 5.4-2.8 29.5-26.8 31.8-31.6 2.2-4.7 2.3-13.7.2-18.7-1.9-4.6-9.8-11.6-14.5-12.9-3.8-1-10.5-1.2-13.1-.3zM590.2 474.5c-9.3 4.1-14.1 10.8-14.7 20.4-.6 9.1 2.1 13.6 17.5 28.4 7.1 6.8 14.6 13.2 16.6 14.2 19.2 9.1 40.2-11 31.5-30.1-2.2-4.9-26.2-28.9-31.8-31.9-4.8-2.5-14.6-3.1-19.1-1z"/></svg>